<svg id="Logo" xmlns="http://www.w3.org/2000/svg" viewBox="0 0 295 287.39"><defs><style>.cls-1{fill:#37424a;}.cls-2{fill:#0e63ac;}</style></defs><path class="cls-1" d="M40.06,223,22.68,154V228.8q0,6.21-2.77,9.32a9.37,9.37,0,0,1-7.35,3.1,9.36,9.36,0,0,1-7.25-3.07q-2.8-3.06-2.81-9.35V143q0-7.11,3.7-9.58t10-2.48H23q6.14,0,8.91,1.11a7.44,7.44,0,0,1,4.1,4,61.09,61.09,0,0,1,3,9.39l15.75,59.37,15.75-59.37a61.09,61.09,0,0,1,3-9.39,7.5,7.5,0,0,1,4.1-4Q80.43,131,86.56,131h6.81q6.27,0,10,2.48T107,143V228.8q0,6.21-2.77,9.32a9.46,9.46,0,0,1-7.43,3.1,9.23,9.23,0,0,1-7.17-3.1q-2.81-3.1-2.81-9.32V154L69.48,223q-1.7,6.74-2.77,9.87a13.53,13.53,0,0,1-3.95,5.73q-2.9,2.6-8,2.59a11.67,11.67,0,0,1-10.64-5.91,24,24,0,0,1-2.33-5.73Q40.94,226.43,40.06,223Z" transform="translate(-2.5 -5.44)"/><path class="cls-1" d="M148.37,170.61V229q0,6.06-2.88,9.17a9.54,9.54,0,0,1-7.32,3.1A9.11,9.11,0,0,1,131,238q-2.78-3.18-2.77-9.09V171.21c0-4,.92-7,2.77-9a9.32,9.32,0,0,1,7.21-3,9.66,9.66,0,0,1,7.32,3Q148.37,165.23,148.37,170.61Z" transform="translate(-2.5 -5.44)"/><path class="cls-1" d="M234.21,214.83a23.39,23.39,0,0,1-16.08,23.32q-7.95,3.07-19.33,3.07-10.87,0-18.63-3.33t-11.46-8.31a16.75,16.75,0,0,1-3.7-10,7.76,7.76,0,0,1,2.36-5.69,8.12,8.12,0,0,1,6-2.37,7,7,0,0,1,4.88,1.55,17.11,17.11,0,0,1,3.26,4.36,22,22,0,0,0,7.43,8.06q4.32,2.67,11.79,2.66a17,17,0,0,0,9.94-2.69q3.89-2.7,3.89-6.18c0-3.55-1.35-6.13-4-7.76s-7.12-3.18-13.28-4.66a109,109,0,0,1-17-5.43,28,28,0,0,1-10.47-7.51,17.19,17.19,0,0,1-3.91-11.46A20.18,20.18,0,0,1,169.52,171a24.87,24.87,0,0,1,10.68-8.61,41,41,0,0,1,17-3.22,56.22,56.22,0,0,1,14.09,1.63,35.07,35.07,0,0,1,10.42,4.36,21.49,21.49,0,0,1,6.36,6.07,11.77,11.77,0,0,1,2.18,6.5A7.46,7.46,0,0,1,228,183.4a9.19,9.19,0,0,1-6.61,2.22,8.12,8.12,0,0,1-5.29-1.77,35.15,35.15,0,0,1-5-5.33,18.4,18.4,0,0,0-5.4-4.73,17,17,0,0,0-8.43-1.77,16.43,16.43,0,0,0-9.09,2.33c-2.42,1.55-3.62,3.48-3.62,5.8a6.26,6.26,0,0,0,2.66,5.21,22,22,0,0,0,7.17,3.37q4.51,1.34,12.42,3.25a66.27,66.27,0,0,1,15.34,5.47,25.38,25.38,0,0,1,9,7.51A16.59,16.59,0,0,1,234.21,214.83Z" transform="translate(-2.5 -5.44)"/><path class="cls-1" d="M252.4,160.93h2.22V148.8c0-3.25.08-5.8.26-7.65a11.24,11.24,0,0,1,1.44-4.77,9.07,9.07,0,0,1,3.4-3.36,9.68,9.68,0,0,1,4.95-1.3,9.93,9.93,0,0,1,6.95,2.89,8.53,8.53,0,0,1,2.63,4.69,42.71,42.71,0,0,1,.55,7.88v13.75h7.4q4.28,0,6.54,2a6.72,6.72,0,0,1,2.25,5.21,5.85,5.85,0,0,1-3.21,5.7c-2.15,1.08-5.21,1.62-9.21,1.62H274.8v37.12a60.72,60.72,0,0,0,.33,7.28,7.49,7.49,0,0,0,1.78,4.14q1.44,1.59,4.69,1.59a25,25,0,0,0,4.81-.63,24.91,24.91,0,0,1,4.73-.63,6.11,6.11,0,0,1,4.4,2,6.57,6.57,0,0,1,2,4.85q0,4.88-5.32,7.46t-15.31,2.59q-9.47,0-14.34-3.18a14.77,14.77,0,0,1-6.4-8.8,59.63,59.63,0,0,1-1.51-15V175.49H252q-4.36,0-6.66-2.07a6.76,6.76,0,0,1-2.29-5.25,6.54,6.54,0,0,1,2.4-5.21Q247.81,160.94,252.4,160.93Z" transform="translate(-2.5 -5.44)"/><rect class="cls-2" x="250.83" width="25.46" height="25.46" rx="2.69"/><rect class="cls-2" x="250.83" y="37.91" width="25.46" height="25.46" rx="2.69"/><rect class="cls-2" x="250.83" y="75.82" width="25.46" height="25.46" rx="2.69"/><rect class="cls-2" x="208.44" y="37.91" width="25.46" height="25.46" rx="2.69"/><rect class="cls-2" x="208.44" y="75.82" width="25.46" height="25.46" rx="2.69"/><rect class="cls-2" x="166.04" y="75.82" width="25.46" height="25.46" rx="2.69"/><rect class="cls-2" x="208.44" y="113.73" width="25.46" height="25.46" rx="2.69"/><rect class="cls-2" x="166.04" y="113.73" width="25.46" height="25.46" rx="2.69"/><rect class="cls-2" x="123.64" y="113.73" width="25.46" height="25.46" rx="2.69"/><path class="cls-1" d="M13.44,264.19h1.63l9.46,23.42H22.84l-2.39-5.9H8l-2.36,5.9H4Zm6.44,16-5.64-14-5.67,14Z" transform="translate(-2.5 -5.44)"/><path class="cls-1" d="M34.21,287.61v-1.5h1.91c3.53,0,4.84-1.51,4.84-4.84V264.35h1.65V281.3c0,4.4-2,6.34-6.36,6.34C35.42,287.64,35,287.64,34.21,287.61Z" transform="translate(-2.5 -5.44)"/><path class="cls-1" d="M47.81,280.89V270.44h1.62v10.49c0,3,0,5.55,5.57,5.55s5.45-2.54,5.45-5.71V270.44H62v10.33c0,4.21-.29,7.19-7,7.19S47.81,285,47.81,280.89Z" transform="translate(-2.5 -5.44)"/><path class="cls-1" d="M67.07,270.5l1.28-.06.19,2.42c.7-1.51,2.35-2.83,6.49-2.83,5.77,0,6.31,2.83,6.31,7.07v10.51H79.71V277.28c0-3.39-.28-5.71-5-5.71-5,0-6,2.67-6,6.25v9.79H67.07Z" transform="translate(-2.5 -5.44)"/><path class="cls-1" d="M86.5,264.89h1.62v3H86.5Zm0,5.55h1.62v17.17H86.5Z" transform="translate(-2.5 -5.44)"/><path class="cls-1" d="M93.41,270.5l1.27-.06.19,2.8c1-2.2,3-3.21,7.11-3.21,5.73,0,7.42,3.39,7.42,9s-1.69,8.91-7.49,8.91c-4,0-5.92-.91-6.88-3.07v8H93.41ZM107.77,279c0-4.71-1.34-7.47-6-7.47S95,273.27,95,279s2,7.41,6.69,7.41S107.77,283.72,107.77,279Z" transform="translate(-2.5 -5.44)"/><path class="cls-1" d="M112.84,279c0-5.05,1.46-9,8-9,6.78,0,7,4.52,7,9.26H114.4c0,4.18,1.11,7.25,6.59,7.25a8.39,8.39,0,0,0,5.7-1.82l.89,1.17A10.32,10.32,0,0,1,121,288C114.11,288,112.84,284,112.84,279Zm1.59-1.16h11.84c-.16-3.42-.38-6.34-5.44-6.34C116,271.48,114.62,274.08,114.43,277.82Z" transform="translate(-2.5 -5.44)"/><path class="cls-1" d="M132.33,270.5l1.27-.06.19,2.95c.64-1.69,2.8-3.17,6.18-3.17v1.57c-4.33,0-6,2.67-6,6.28v9.54h-1.62Z" transform="translate(-2.5 -5.44)"/><path class="cls-1" d="M149.9,276c0-8.07,4.18-12,11.53-12a11.73,11.73,0,0,1,8,2.76l-1.14,1.16a10.31,10.31,0,0,0-6.82-2.39c-6.43,0-9.84,3.49-9.84,10.46s3.28,10.45,9.84,10.45c3.7,0,5.58-1.16,7-2.45l1.14,1.13c-1.56,1.48-3.82,2.86-8.18,2.86C153.73,288,149.9,283.91,149.9,276Z" transform="translate(-2.5 -5.44)"/><path class="cls-1" d="M172.1,279c0-5.93,2.29-9,8.15-9s8.22,3,8.22,9-2.36,9-8.22,9S172.1,284.94,172.1,279Zm14.75,0c0-4.93-1.85-7.47-6.6-7.47s-6.52,2.54-6.52,7.47,1.81,7.47,6.52,7.47S186.85,283.94,186.85,279Z" transform="translate(-2.5 -5.44)"/><path class="cls-1" d="M192.77,270.5l1.27-.06.19,2.42c.64-1.51,2.27-2.83,6.34-2.83s5.22,1.23,5.64,3c.76-1.73,2.58-3,6.69-3,5.76,0,6.14,2.83,6.14,7.07v10.51h-1.62V277.28c0-3.39-.13-5.71-4.87-5.71-5,0-5.83,2.67-5.83,6.25v9.79h-1.63V277.28c0-3.39-.12-5.71-4.87-5.71-5,0-5.83,2.67-5.83,6.25v9.79h-1.62Z" transform="translate(-2.5 -5.44)"/><path class="cls-1" d="M224.07,270.5l1.28-.06.19,2.8c1-2.2,3-3.21,7.1-3.21,5.73,0,7.42,3.39,7.42,9s-1.69,8.91-7.48,8.91c-4,0-5.93-.91-6.88-3.07v8h-1.63ZM238.44,279c0-4.71-1.34-7.47-6.05-7.47s-6.69,1.73-6.69,7.47,1.94,7.41,6.69,7.41S238.44,283.72,238.44,279Z" transform="translate(-2.5 -5.44)"/><path class="cls-1" d="M243.25,282.9c0-4.89,3.15-6.21,11.75-6.21h1.14c0-3.64-.67-5.18-5.09-5.18a9.8,9.8,0,0,0-5.29,1.54l-.86-1.26a12.21,12.21,0,0,1,6.24-1.76c5.74,0,6.6,2,6.6,7v6.91c0,2,.12,2.26,1.91,2.26v1.41a1.8,1.8,0,0,1-.64.06c-2.1,0-2.71-.94-2.71-2.88-1.11,2.13-3,3.2-7.07,3.2C244.49,288,243.25,285.79,243.25,282.9Zm12.89-3.26v-1.48h-1.08c-8,0-10.22.95-10.22,4.65,0,2.35,1,3.73,4.58,3.73C254.2,286.54,256.14,284.41,256.14,279.64Z" transform="translate(-2.5 -5.44)"/><path class="cls-1" d="M263.76,270.5l1.27-.06.19,2.42c.7-1.51,2.36-2.83,6.5-2.83,5.76,0,6.3,2.83,6.3,7.07v10.51H276.4V277.28c0-3.39-.29-5.71-5-5.71-5,0-6,2.67-6,6.25v9.79h-1.62Z" transform="translate(-2.5 -5.44)"/><path class="cls-1" d="M282.67,292.82v-1.35H284a2.54,2.54,0,0,0,2.74-2l.73-1.88-6.84-17.14h1.68l6,15.23,6-15.23H296l-7.67,19.21c-.86,2.2-2,3.17-4.2,3.17Z" transform="translate(-2.5 -5.44)"/></svg>